<svg height="200" id="svg72" width="200" fill="none" version="1.1" viewBox="0 0 200 200" xmlns="http://www.w3.org/2000/svg">
	<g id="g60" clipPath="url(#clip0)">
		<path id="path54" d="M110.454 93.9047C116.595 90.0301 141.899 72.8389 144.222 51.277C146.191 32.9862 126.498 23.6994 115.015 21.5586C103.532 19.4177 81.8593 20.9923 77.1052 38.7638C71.6153 59.2903 88.2495 83.8612 93.0067 90.3282C95.6253 88.5249 98.9241 87.7227 102.287 88.3496C105.799 89.0045 108.676 91.097 110.454 93.9047Z" fill="#FFFAFA"/>
		<path id="path56" d="M87.8089 98.3418C88.1929 96.282 89.0648 94.4393 90.2739 92.9006C83.1438 89.1634 56.4856 76.5086 37.188 85.1186C20.4563 92.5838 22.2697 114.396 26.1457 125.473C30.0225 136.549 42.1721 154.635 59.8429 149.856C78.652 144.769 91.0587 121.591 95.394 112.204C89.9992 110.052 86.6977 104.302 87.8089 98.3418Z" fill="#FFFAFA"/>
		<path id="path58" d="M164.101 109.133C149.317 94.2625 120.211 96.3379 111.944 97.2736C112.432 99.0477 112.55 100.955 112.189 102.887C111.07 108.889 105.854 113.076 99.9973 113.082C100.611 123.121 103.733 149.693 119.64 161.358C134.401 172.184 152.282 159.657 159.89 150.721C167.496 141.786 177.018 122.126 164.101 109.133Z" fill="#FFFAFA"/>
	</g>
	<defs id="defs70">
		<linearGradient id="paint0_linear" gradientTransform="translate(0.32888687,0.32888687)" gradientUnits="userSpaceOnUse" x1="196" x2="37" y1="4.00001" y2="162.5">
			<stop id="stop62" stopColor="#F33600"/>
			<stop id="stop64" offset="1" stopColor="#FF7750"/>
		</linearGradient>
		<clipPath id="clip0">
			<rect height="200" id="rect67" width="200" fill="white"/>
		</clipPath>
	</defs>
</svg>